<svg preserveAspectRatio="none" overflow="visible" style="display: block;" width="406.103" height="102.217" viewBox="0 0 406.103 102.217" fill="none" xmlns="http://www.w3.org/2000/svg">
<g id="Group 14">
<g id="Ellipse 1">
<ellipse cx="203.017" cy="50.7379" rx="203.017" ry="50.7379" transform="matrix(0.999998 0.00182653 0.000675191 1 0 -1.77897e-09)" fill="#D9D9D9"/>
<ellipse cx="203.017" cy="50.7379" rx="203.017" ry="50.7379" transform="matrix(0.999998 0.00182653 0.000675191 1 0 -1.77897e-09)" fill="#06060E"/>
<ellipse cx="203.017" cy="50.7379" rx="203.017" ry="50.7379" transform="matrix(0.999998 0.00182653 0.000675191 1 0 -1.77897e-09)" fill="url(#paint0_radial_241_642)"/>
<ellipse cx="203.017" cy="50.7379" rx="203.017" ry="50.7379" transform="matrix(0.999998 0.00182653 0.000675191 1 0 -1.77897e-09)" fill="url(#paint1_radial_241_642)"/>
<ellipse cx="203.017" cy="50.7379" rx="203.017" ry="50.7379" transform="matrix(0.999998 0.00182653 0.000675191 1 0 -1.77897e-09)" fill="url(#paint2_linear_241_642)"/>
</g>
</g>
<defs>
<radialGradient id="paint0_radial_241_642" cx="0" cy="0" r="1" gradientUnits="userSpaceOnUse" gradientTransform="translate(203.017 -182.656) scale(121.81 202.952)">
<stop offset="0.317308" stop-color="white" stop-opacity="0.18"/>
<stop offset="0.471154" stop-color="#C8AAFF" stop-opacity="0.1"/>
<stop offset="0.75" stop-color="#C8AAFF" stop-opacity="0"/>
</radialGradient>
<radialGradient id="paint1_radial_241_642" cx="0" cy="0" r="1" gradientUnits="userSpaceOnUse" gradientTransform="translate(203.017 -385.608) scale(243.621 426.198)">
<stop stop-color="#A78BFA" stop-opacity="0.55"/>
<stop offset="0.3" stop-color="#12323D" stop-opacity="0.99"/>
<stop offset="0.55" stop-color="#3B82F6" stop-opacity="0.79"/>
<stop offset="1" stop-color="#3B82F6" stop-opacity="0"/>
</radialGradient>
<linearGradient id="paint2_linear_241_642" x1="0" y1="50.7379" x2="406.035" y2="50.7379" gradientUnits="userSpaceOnUse">
<stop offset="0.04" stop-color="#0A0845"/>
<stop offset="0.18" stop-color="#193BC6" stop-opacity="0.9"/>
<stop offset="0.32" stop-color="#7FAFF8" stop-opacity="0.95"/>
<stop offset="0.48" stop-color="#CEDCFF"/>
<stop offset="0.5" stop-color="white"/>
<stop offset="0.52" stop-color="#CEDCFF"/>
<stop offset="0.68" stop-color="#7FAFF8" stop-opacity="0.95"/>
<stop offset="0.82" stop-color="#193BC6" stop-opacity="0.85"/>
<stop offset="0.96" stop-color="#0A0845"/>
</linearGradient>
</defs>
</svg>
